<svg width="18" height="20" viewBox="0 0 18 20" fill="none" xmlns="http://www.w3.org/2000/svg">
<path d="M3.59844 0.909088L0.898438 4.54545V17.2727C0.898438 17.7549 1.08808 18.2174 1.42565 18.5584C1.76321 18.8993 2.22105 19.0909 2.69844 19.0909H15.2984C15.7758 19.0909 16.2337 18.8993 16.5712 18.5584C16.9088 18.2174 17.0984 17.7549 17.0984 17.2727V4.54545L14.3984 0.909088H3.59844Z" stroke="white" stroke-width="1.5" stroke-linecap="round" stroke-linejoin="round"/>
<path d="M0.898438 4.54546H17.0984" stroke="white" stroke-width="1.5" stroke-linecap="round" stroke-linejoin="round"/>
<path d="M12.5984 8.18182C12.5984 9.14625 12.2192 10.0712 11.544 10.7531C10.8689 11.4351 9.95322 11.8182 8.99844 11.8182C8.04366 11.8182 7.12798 11.4351 6.45285 10.7531C5.77772 10.0712 5.39844 9.14625 5.39844 8.18182" stroke="white" stroke-width="1.5" stroke-linecap="round" stroke-linejoin="round"/>
</svg>
