<svg width="20" height="20" viewBox="0 0 20 20" fill="none" xmlns="http://www.w3.org/2000/svg">
<g opacity="0.8">
<path d="M14.5465 0.90918H5.45561C2.94523 0.90918 0.910156 2.94425 0.910156 5.45463V14.5455C0.910156 17.0559 2.94523 19.091 5.45561 19.091H14.5465C17.0569 19.091 19.092 17.0559 19.092 14.5455V5.45463C19.092 2.94425 17.0569 0.90918 14.5465 0.90918Z" stroke="white" stroke-width="1.5" stroke-linecap="round" stroke-linejoin="round"/>
<path d="M13.6357 9.42719C13.7479 10.1838 13.6187 10.9565 13.2664 11.6354C12.9142 12.3143 12.3568 12.8648 11.6736 13.2087C10.9904 13.5526 10.2161 13.6723 9.461 13.5508C8.70586 13.4293 8.00825 13.0727 7.46741 12.5319C6.92658 11.991 6.57004 11.2934 6.44853 10.5383C6.32702 9.78315 6.44671 9.00891 6.79058 8.32571C7.13446 7.64251 7.685 7.08514 8.36391 6.73287C9.04282 6.38059 9.81552 6.25136 10.5721 6.36356C11.3439 6.478 12.0583 6.83761 12.61 7.38929C13.1617 7.94096 13.5213 8.65544 13.6357 9.42719Z" stroke="white" stroke-width="1.5" stroke-linecap="round" stroke-linejoin="round"/>
<path d="M15 5H15.01" stroke="white" stroke-width="1.5" stroke-linecap="round" stroke-linejoin="round"/>
</g>
</svg>
