<svg width="20" height="17" viewBox="0 0 20 17" fill="none" xmlns="http://www.w3.org/2000/svg">
<g opacity="0.8">
<path d="M19.1654 0.849856C18.3674 1.42401 17.4838 1.86315 16.5487 2.15036C16.0468 1.56174 15.3798 1.14454 14.6379 0.955193C13.896 0.765842 13.1149 0.813472 12.4004 1.09164C11.6859 1.36981 11.0724 1.8651 10.6428 2.51052C10.2133 3.15593 9.98845 3.92034 9.9987 4.70036V5.55036C8.53423 5.58909 7.08309 5.2578 5.77454 4.58599C4.46598 3.91417 3.34063 2.9227 2.4987 1.69986C2.4987 1.69986 -0.834635 9.34986 6.66536 12.7499C4.94914 13.9381 2.90466 14.5339 0.832031 14.4499C8.33203 18.6999 17.4987 14.4499 17.4987 4.67486C17.4979 4.43809 17.4756 4.20191 17.432 3.96936C18.2825 3.11383 18.8827 2.03366 19.1654 0.849856V0.849856Z" stroke="white" stroke-width="1.5" stroke-linecap="round" stroke-linejoin="round"/>
</g>
</svg>
