<svg width="20" height="15" viewBox="0 0 20 15" fill="none" xmlns="http://www.w3.org/2000/svg">
<g opacity="0.8">
<path d="M18.7825 2.85016C18.6835 2.45467 18.4819 2.09231 18.1981 1.79967C17.9142 1.50703 17.5581 1.29448 17.1658 1.1835C15.7325 0.833496 9.99917 0.833496 9.99917 0.833496C9.99917 0.833496 4.26584 0.833496 2.83251 1.21683C2.44021 1.32782 2.08416 1.54036 1.8003 1.833C1.51644 2.12564 1.31483 2.488 1.21584 2.8835C0.95352 4.33813 0.825204 5.81375 0.832508 7.29183C0.823157 8.78103 0.951481 10.2679 1.21584 11.7335C1.32497 12.1167 1.5311 12.4653 1.81429 12.7456C2.09749 13.0258 2.44819 13.2283 2.83251 13.3335C4.26584 13.7168 9.99917 13.7168 9.99917 13.7168C9.99917 13.7168 15.7325 13.7168 17.1658 13.3335C17.5581 13.2225 17.9142 13.01 18.1981 12.7173C18.4819 12.4247 18.6835 12.0623 18.7825 11.6668C19.0428 10.2232 19.1711 8.75878 19.1658 7.29183C19.1752 5.80263 19.0469 4.31574 18.7825 2.85016V2.85016Z" stroke="white" stroke-width="1.5" stroke-linecap="round" stroke-linejoin="round"/>
<path d="M8.125 10.0164L12.9167 7.29141L8.125 4.56641V10.0164Z" stroke="white" stroke-width="1.5" stroke-linecap="round" stroke-linejoin="round"/>
</g>
</svg>
